<?xml version="1.0" encoding="UTF-8"?>
<svg id="Layer_1" data-name="Layer 1" xmlns="http://www.w3.org/2000/svg" viewBox="0 0 404.93 841.45">
  <defs>
    <style>
      .cls-1 {
        fill: #8b7355;
      }
    </style>
  </defs>
  <path class="cls-1" d="M202.46,841.45c111.64,0,202.47-90.83,202.47-202.46V0h-11.68v638.99c0,105.19-85.59,190.78-190.79,190.78S11.68,744.18,11.68,638.99V0H0v638.99c0,111.63,90.82,202.46,202.46,202.46Z"/>
  <path class="cls-1" d="M202.46,810.3c94.46,0,171.32-76.85,171.32-171.31V0h-11.68v638.99c0,88.02-71.62,159.63-159.64,159.63s-159.63-71.61-159.63-159.63V0h-11.68v638.99c0,94.46,76.85,171.31,171.31,171.31Z"/>
  <path class="cls-1" d="M202.46,779.16c77.29,0,140.17-62.88,140.17-140.17V0h-11.68v638.99c0,70.85-57.64,128.48-128.49,128.48s-128.48-57.64-128.48-128.48V0h-11.68v638.99c0,77.29,62.88,140.17,140.17,140.17Z"/>
  <path class="cls-1" d="M202.46,748.01c60.12,0,109.03-48.91,109.03-109.02V0h-11.68v638.99c0,53.67-43.67,97.34-97.35,97.34s-97.34-43.67-97.34-97.34V0h-11.68v638.99c0,60.11,48.9,109.02,109.02,109.02Z"/>
  <path class="cls-1" d="M202.46,716.86c42.94,0,77.88-34.93,77.88-77.87V0h-11.68v638.99c0,36.5-29.7,66.19-66.2,66.19s-66.19-29.69-66.19-66.19V0h-11.68v638.99c0,42.94,34.93,77.87,77.87,77.87Z"/>
  <path class="cls-1" d="M155.74,638.99V0h11.68v638.99c0,19.32,15.72,35.04,35.04,35.04s35.05-15.72,35.05-35.04V0h11.68v638.99c0,25.76-20.96,46.72-46.73,46.72s-46.72-20.96-46.72-46.72Z"/>
</svg>