<?xml version="1.0" encoding="UTF-8"?>
<svg id="Layer_1" data-name="Layer 1" xmlns="http://www.w3.org/2000/svg" viewBox="0 0 526.06 738.52">
  <defs>
    <style>
      .cls-1 {
        fill: #8b7355;
      }
    </style>
  </defs>
  <path class="cls-1" d="M340.53,738.52c-48.7-196.28-103.9-418.75-58.88-635.17l2.98.62c-44.88,215.74,10.23,437.85,58.85,633.82l-2.96.73Z"/>
  <path class="cls-1" d="M308.59,591.11l-3,.52c-2.04-11.82-.88-23.95.67-35.3,9.81-71.47,39.1-139.91,84.69-197.93,25.99-33.07,50.83-52.77,78.17-61.99l.97,2.89c-26.75,9.02-51.14,28.4-76.74,60.99-45.26,57.59-74.33,125.52-84.07,196.46-1.52,11.1-2.66,22.95-.69,34.36Z"/>
  <path class="cls-1" d="M273.89,395.03l-2.51-1.73c.05-.07,1.25-1.81,3.18-4.7,4.69-17.64,28.55-103.76,49.24-110.97,2.96-1.03,5.76-.57,8.34,1.38,4.31,3.27,6.73,7.23,7.2,11.78,1.22,11.72-10.36,25.07-21.55,37.99-6.11,7.05-11.88,13.71-14.85,19.38-7.51,14.36-19.62,32.85-25.56,41.71-.41,1.53-.64,2.41-.66,2.5l-.87-.22c-1.21,1.79-1.93,2.84-1.97,2.89ZM325.5,280.31c-.23.05-.45.12-.68.2-16.71,5.82-37.02,72.25-44.82,99.9,6.26-9.59,14.59-22.83,20.25-33.66,3.13-5.98,9.02-12.77,15.25-19.96,10.27-11.85,21.91-25.27,20.82-35.68-.39-3.73-2.36-6.89-6.01-9.66-1.53-1.16-3.11-1.53-4.81-1.13Z"/>
  <path class="cls-1" d="M273.16,392.46c-.05-.06-1.28-1.53-3.34-3.93-16.65-10.19-88.57-55.32-87.88-73.72.07-1.83.86-4.37,4.23-6.08,18.04-9.13,30.64,10,41.76,26.88,4.58,6.95,8.9,13.51,13.22,17.59,10.99,10.36,24.33,25.6,30.66,32.98.74.45,1.44.88,2.12,1.29l-.42.7c1.23,1.45,1.94,2.3,1.98,2.34l-2.34,1.95ZM191.78,309.87c-1.37.32-2.78.84-4.23,1.57-2.22,1.12-2.52,2.52-2.56,3.47-.5,13.22,48.97,47.37,78.02,65.77-6.83-7.75-16.01-17.8-23.94-25.28-4.58-4.32-9-11.03-13.68-18.13-9.92-15.05-20.14-30.57-33.62-27.41Z"/>
  <path class="cls-1" d="M324.62,490.85l-2.98.65s-.18-.82-.46-2.16l-.55-.04c.05-.64.1-1.28.14-1.94-1.45-7.08-4.32-21.83-5.52-33.25-.47-4.46-2.26-9.78-4.15-15.41-4.62-13.76-9.86-29.35,2.02-39.23,2.37-1.97,4.25-1.66,5.42-1.06,10.49,5.41,6.62,70.35,5.3,88.75.47,2.26.76,3.64.78,3.69ZM316.42,401.05c-.32.08-.76.29-1.34.77-10.27,8.54-5.6,22.46-1.08,35.91,1.94,5.79,3.78,11.26,4.29,16.06.71,6.74,2.01,14.67,3.25,21.47,1.7-31.43,1.76-70.96-4.39-74.14-.1-.05-.33-.17-.73-.07Z"/>
  <path class="cls-1" d="M364.7,403.7l-2.98.65s-.18-.82-.46-2.16l-.55-.04c.05-.64.1-1.29.14-1.94-1.45-7.08-4.32-21.83-5.52-33.24-.47-4.46-2.26-9.78-4.15-15.41-4.62-13.76-9.86-29.35,2.02-39.23,2.37-1.97,4.25-1.66,5.42-1.06,10.49,5.41,6.62,70.34,5.3,88.74.47,2.27.76,3.64.78,3.69ZM356.5,313.89c-.32.08-.76.29-1.34.77-10.27,8.54-5.6,22.46-1.08,35.92,1.94,5.79,3.78,11.26,4.29,16.06.71,6.74,2.01,14.67,3.25,21.46,1.7-31.42,1.76-70.96-4.39-74.13-.1-.05-.33-.17-.73-.07Z"/>
  <path class="cls-1" d="M408.59,342.21l-3.01.49s-.11-.7-.29-1.85l-.44-.05c.06-.56.12-1.11.18-1.67-.92-6.08-2.72-18.73-3.31-28.55-.23-3.83-1.48-8.35-2.79-13.15-3.24-11.76-6.91-25.1,2.93-34.06,2.05-1.87,3.69-1.65,4.71-1.13,8.33,4.23,3.58,57.38,1.54,76.81.3,1.93.49,3.1.49,3.14ZM404.95,264.96c-.26.06-.63.3-1.05.68-8.46,7.7-5.2,19.54-2.04,30.99,1.36,4.95,2.65,9.63,2.9,13.77.29,4.87.88,10.45,1.52,15.57,2.6-30.48,2.91-58.97-1.1-61-.06-.03-.13-.03-.23,0Z"/>
  <path class="cls-1" d="M265.21,282.67c-.03-.05-.87-1.43-2.28-3.68-12.75-10.72-67.45-57.77-64.49-73.17.3-1.58,1.33-3.68,4.49-4.71,16.54-5.38,24.7,12.36,31.94,27.98,2.95,6.38,5.75,12.41,8.84,16.36,7.91,10.07,17.17,24.51,21.55,31.51.55.46,1.08.9,1.59,1.32l-.43.52c.87,1.41,1.38,2.23,1.4,2.28l-2.6,1.58ZM205.27,203.63c-.46.11-.92.24-1.4.39-1.89.61-2.29,1.65-2.43,2.38-2.05,10.67,33.7,44.43,55.85,63.74-4.64-7.14-10.63-15.99-15.98-22.8-3.32-4.23-6.18-10.41-9.21-16.96-6.79-14.66-13.8-29.81-26.83-26.75Z"/>
  <path class="cls-1" d="M271.43,186.07l-2.97.67s-.26-1.14-.69-2.95c-6.3-10.19-32.67-54.03-27.16-64.35.61-1.14,1.87-2.51,4.45-2.59,12.82-.37,14.47,14.46,15.8,26.38.56,5.01,1.08,9.75,2.27,13.08,3.08,8.6,6.08,20.49,7.48,26.29.25.4.49.79.73,1.18l-.39.25c.3,1.26.47,2,.48,2.04ZM244.47,119.99c-.69.16-.98.53-1.18.9-3.23,6.05,9.95,32.33,21.88,52.7-1.42-5.31-3.16-11.33-4.91-16.24-1.31-3.66-1.86-8.57-2.43-13.77-1.56-14.03-3.38-23.94-12.68-23.67-.26,0-.48.04-.68.08Z"/>
  <path class="cls-1" d="M283.99,105.76s-.85-1.04-2.22-2.68c-14.08-9.63-63.23-44.14-61.14-55.04.23-1.22,1.09-2.79,3.84-3.44.04,0,.08-.02.12-.03,14.04-3.1,22.34,9.77,29.66,21.13,2.98,4.63,5.8,9,8.74,11.9,7.55,7.45,16.57,18.04,20.86,23.19.5.34.99.67,1.47,1l-.29.42c.83,1,1.3,1.58,1.33,1.61l-2.37,1.92ZM225.16,47.57c-1.4.33-1.5.86-1.53,1.04-1.2,6.27,26.79,28.53,50.31,45.27-4.08-4.66-8.82-9.9-13.09-14.11-3.18-3.14-6.09-7.65-9.16-12.42-7.11-11.04-14.47-22.45-26.44-19.81-.03,0-.06.01-.08.02Z"/>
  <path class="cls-1" d="M267.54,284.61l-2.48-1.77c.04-.06,1.06-1.5,2.71-3.88,4.12-14.76,24.88-86.21,42.6-92.41,2.57-.9,5.1-.51,7.32,1.12,3.7,2.72,5.77,6.05,6.17,9.88,1.03,9.84-8.95,21.05-18.61,31.88-5.23,5.87-10.17,11.42-12.71,16.11-6.47,11.95-16.87,27.35-21.98,34.74-.19.7-.38,1.37-.55,2.01l-.71-.19c-1.08,1.55-1.73,2.46-1.76,2.5ZM311.98,189.25c-.2.05-.4.11-.61.18-12.86,4.5-29.67,53.02-38.13,81.49,5.27-7.86,11.97-18.25,16.61-26.82,2.71-5.01,7.76-10.68,13.12-16.69,8.78-9.86,18.74-21.03,17.85-29.54-.31-2.99-1.93-5.52-4.95-7.74-1.25-.92-2.5-1.21-3.89-.88Z"/>
  <path class="cls-1" d="M322.04,493.49l-1.55-2.62c.06-.03,1.47-.87,3.77-2.28,9.24-11.17,54.61-64.82,71.93-63.19,2.54.24,4.54,1.58,5.79,3.88,2.07,3.82,2.52,7.53,1.34,11.02-3,8.91-15.76,14.68-28.09,20.27-6.68,3.03-12.99,5.88-16.94,8.94-10.09,7.79-24.83,17.03-32.01,21.42-.43.52-.84,1.03-1.24,1.51l-.53-.43c-1.52.92-2.42,1.46-2.46,1.48ZM393.1,428.68c-13.98,3.28-43.46,34.84-60.49,54.72,7.4-4.69,16.77-10.86,23.82-16.3,4.24-3.27,10.7-6.2,17.55-9.3,11.19-5.07,23.88-10.82,26.46-18.47.91-2.69.54-5.51-1.13-8.6-.77-1.42-1.85-2.15-3.39-2.3-.85-.08-1.79,0-2.81.25Z"/>
  <path class="cls-1" d="M366.47,401.73l-.4-.56c-1.72.48-2.73.75-2.77.76l-.79-2.95c.06-.02,1.65-.44,4.25-1.17,11.93-8.25,70.12-47.57,86.38-41.3,2.38.92,3.94,2.75,4.52,5.31.95,4.24.38,7.93-1.7,10.97-5.3,7.76-19.15,9.86-32.54,11.89-7.25,1.1-14.1,2.14-18.73,4-11.83,4.76-28.52,9.65-36.62,11.93-.56.39-1.09.76-1.6,1.12ZM443.06,359.58c-16.95,3.98-47.74,22.77-66.86,35.51,8.4-2.5,19.09-5.9,27.35-9.23,4.97-2,11.98-3.06,19.41-4.19,12.15-1.84,25.92-3.93,30.48-10.6,1.61-2.35,2.01-5.15,1.24-8.58-.35-1.58-1.19-2.57-2.64-3.13-2.12-.82-5.21-.67-8.98.22Z"/>
  <path class="cls-1" d="M466.82,337.7c-4.94,1.16-11.13,1.07-17.19.98-5.15-.08-10.02-.15-13.42.6-8.78,1.94-20.94,3.4-26.88,4.05-.41.19-.8.38-1.18.56l-.2-.41c-1.35.14-2.15.22-2.19.22l-.29-3.03s1.17-.11,3.01-.31c10.35-4.89,54.54-25.07,65.37-18.67,1.69,1,2.64,2.58,2.75,4.59.18,3.19-.7,5.81-2.59,7.78-1.76,1.84-4.26,2.97-7.2,3.66ZM418.48,339.14c5.54-.74,11.91-1.71,17.07-2.85,3.74-.83,8.78-.75,14.12-.67,8.59.13,18.33.27,22.15-3.7,1.3-1.35,1.87-3.15,1.74-5.5-.06-.99-.44-1.65-1.26-2.13-7.06-4.17-35.53,6.79-53.82,14.85Z"/>
  <g>
    <path class="cls-1" d="M457.55,305.05l-2.14-2.18s.77-.76,1.98-1.98c5.02-10.02,26.89-52.38,37.78-53.03,1.22-.07,2.97.27,4.31,2.32,6.58,10.08-4.39,18.67-13.21,25.56-3.69,2.89-7.17,5.61-9.22,8.17-5.3,6.64-13.24,14.82-17.15,18.77-.19.38-.38.77-.57,1.14l-.38-.19c-.87.87-1.38,1.37-1.4,1.4ZM496.12,251.06c-.28-.15-.54-.16-.77-.15-6.23.37-20.31,23.09-30.58,42.35,3.36-3.58,7.02-7.64,9.89-11.23,2.27-2.84,5.89-5.67,9.72-8.67,10.3-8.06,17.22-14.31,12.54-21.5-.28-.42-.54-.66-.8-.8Z"/>
    <path class="cls-1" d="M457.35,300.64l-.16-.39c.39-.16.78-.32,1.18-.48,4.24-3.6,13-10.89,20.02-15.68,2.71-1.85,5.69-5.12,8.85-8.57,7.55-8.27,16.94-18.56,26.49-11.23,1.95,1.49,2.16,3.25,1.99,4.47-1.48,10.8-45.38,29.4-55.74,33.65-1.31,1.12-2.09,1.8-2.12,1.83l-2.01-2.29s.57-.5,1.5-1.29ZM511.88,266.7c-6.81-5.22-13.57,1.22-22.38,10.87-3.28,3.6-6.38,6.99-9.38,9.04-3.8,2.59-8.13,5.93-11.95,9.01,19.98-8.78,43.7-21.1,44.54-27.28.03-.23.03-.49-.09-.78-.11-.26-.33-.55-.73-.86Z"/>
    <path class="cls-1" d="M458.62,301.17l-.07-.42c.41-.06.84-.13,1.26-.2,4.94-2.55,15.13-7.67,23.05-10.74,3.06-1.19,6.7-3.69,10.56-6.35,9.22-6.34,20.7-14.24,28.35-4.95,1.56,1.89,1.36,3.66.93,4.8-3.88,10.19-50.85,18.37-61.91,20.16-1.53.79-2.44,1.28-2.48,1.3l-1.44-2.69s.67-.36,1.75-.92ZM519.41,280.45c-5.45-6.62-13.49-1.89-24.26,5.52-4.01,2.76-7.8,5.36-11.19,6.68-4.29,1.66-9.26,3.94-13.68,6.07,21.45-4.03,47.34-10.66,49.56-16.49.08-.22.14-.47.09-.78-.05-.28-.2-.61-.52-1Z"/>
    <path class="cls-1" d="M458.77,302.17l.04-.42c.42.03.84.07,1.27.1,5.4-1.31,16.51-3.88,24.93-5,3.25-.43,7.38-2.01,11.76-3.68,10.46-3.99,23.47-8.96,28.71,1.88,1.07,2.21.46,3.88-.23,4.89-6.18,8.99-53.75,5.86-64.92,4.99-1.67.41-2.68.67-2.72.68l-.76-2.95s.73-.19,1.92-.48ZM522.74,296.37c-3.73-7.72-12.67-5.02-24.88-.36-4.55,1.74-8.84,3.37-12.45,3.85-4.56.6-9.93,1.65-14.73,2.68,21.79,1.14,48.52.81,52.06-4.34.13-.2.25-.43.27-.74.02-.29-.05-.64-.27-1.1Z"/>
    <path class="cls-1" d="M457.76,304.64l-2.8-1.21s.43-.99,1.09-2.58c.88-11.17,5.19-58.65,15.03-63.36,1.11-.53,2.85-.87,4.86.53,9.89,6.86,2.96,18.95-2.61,28.66-2.33,4.06-4.53,7.9-5.46,11.04-2.41,8.15-6.68,18.72-8.82,23.85-.03.43-.06.85-.09,1.27l-.42-.03c-.48,1.13-.76,1.79-.77,1.82ZM473.17,240.09c-.31-.03-.56.05-.77.15-5.63,2.69-10.12,29.04-12.38,50.75,1.76-4.58,3.63-9.72,4.93-14.13,1.03-3.48,3.32-7.47,5.74-11.7,6.5-11.34,10.56-19.75,3.52-24.64-.41-.29-.75-.41-1.04-.44Z"/>
    <path class="cls-1" d="M458.05,305.26l-3.01-.5s.18-1.07.44-2.77c-1.82-11.05-9.04-58.18-.61-65.11.95-.78,2.56-1.53,4.85-.65,11.25,4.29,7.42,17.68,4.34,28.45-1.29,4.5-2.5,8.76-2.65,12.03-.39,8.49-1.99,19.77-2.83,25.27.07.42.14.84.21,1.26l-.42.07c-.19,1.21-.31,1.92-.31,1.96ZM457.52,238.9c-.31.05-.53.18-.71.33-4.82,3.97-2.86,30.62.16,52.24.61-4.87,1.19-10.31,1.4-14.9.17-3.63,1.43-8.05,2.77-12.73,3.59-12.57,5.52-21.7-2.5-24.76-.47-.18-.83-.22-1.11-.18Z"/>
    <path class="cls-1" d="M459.29,305.07l-3.03.34s-.12-1.08-.34-2.78c-4.8-10.12-24.72-53.44-18.54-62.42.7-1.01,2.04-2.17,4.48-1.96,11.99,1.02,12,14.95,12.01,26.15,0,4.68,0,9.11.77,12.3,1.97,8.27,3.53,19.56,4.24,25.07.18.39.37.77.55,1.15l-.38.18c.15,1.22.23,1.93.24,1.97ZM440.48,241.43c-.28.13-.46.32-.59.52-3.54,5.14,5.7,30.22,14.55,50.17-.75-4.85-1.7-10.24-2.76-14.71-.84-3.54-.84-8.13-.85-13-.01-13.07-.68-22.38-9.22-23.11-.5-.04-.86.02-1.12.14Z"/>
  </g>
  <g>
    <path class="cls-1" d="M61.61,273.55l-3.05.11s-.04-1.08-.12-2.8c-4.01-10.46-20.56-55.17-13.7-63.65.77-.95,2.2-2.01,4.62-1.61,11.88,1.94,10.82,15.83,9.98,26.99-.35,4.67-.69,9.08-.18,12.32,1.33,8.39,2.03,19.77,2.31,25.32.15.4.31.8.46,1.19l-.4.15c.06,1.22.08,1.95.09,1.98ZM47.74,208.66c-.29.11-.48.29-.63.47-3.93,4.86,3.36,30.57,10.66,51.14-.38-4.89-.91-10.34-1.63-14.88-.57-3.59-.22-8.17.15-13.03.99-13.04,1.04-22.37-7.43-23.75-.5-.08-.86-.05-1.13.05Z"/>
    <path class="cls-1" d="M58.22,270.72l-.4-.15c.15-.39.3-.79.44-1.2.2-5.56.72-16.94,1.92-25.35.46-3.24.06-7.65-.37-12.32-1.02-11.15-2.29-25.02,9.56-27.14,2.41-.43,3.86.6,4.64,1.54,6.99,8.37-8.88,53.34-12.73,63.86-.06,1.72-.08,2.76-.08,2.8l-3.05-.06s.02-.76.06-1.98ZM69.91,207.57c-8.44,1.51-8.25,10.84-7.06,23.86.44,4.85.86,9.43.35,13.02-.65,4.55-1.1,10-1.4,14.9,6.98-20.68,13.88-46.5,9.88-51.29-.15-.18-.34-.36-.64-.46-.27-.09-.63-.12-1.13-.03Z"/>
    <path class="cls-1" d="M59.46,270.14l-.36-.24c.23-.35.47-.71.7-1.06,1.45-5.37,4.54-16.34,7.61-24.26,1.18-3.06,1.79-7.44,2.43-12.08,1.53-11.09,3.44-24.89,15.46-24.27,2.45.13,3.62,1.46,4.17,2.55,4.91,9.74-20.72,49.94-26.85,59.32-.44,1.66-.7,2.67-.71,2.71l-2.95-.75s.19-.73.5-1.92ZM85.15,211.28c-8.56-.44-10.49,8.69-12.28,21.64-.67,4.82-1.29,9.38-2.61,12.76-1.66,4.29-3.33,9.5-4.74,14.2,11.48-18.56,24.04-42.15,21.23-47.73-.11-.21-.25-.43-.52-.59-.24-.15-.59-.26-1.09-.29Z"/>
    <path class="cls-1" d="M60.3,270.7l-.29-.31c.31-.29.62-.57.93-.87,2.67-4.87,8.26-14.81,13.12-21.78,1.87-2.69,3.49-6.81,5.21-11.17,4.1-10.41,9.21-23.38,20.74-19.94,2.35.7,3.18,2.27,3.45,3.47,2.47,10.62-31.91,43.65-40.08,51.31-.82,1.51-1.31,2.43-1.33,2.46l-2.69-1.43s.36-.67.94-1.74ZM99.15,219.55c-8.22-2.45-12.25,5.97-17.04,18.14-1.78,4.53-3.47,8.81-5.54,11.79-2.63,3.77-5.48,8.44-7.95,12.68,15.53-15.33,33.31-35.29,31.89-41.37-.05-.23-.14-.47-.36-.7-.2-.21-.51-.39-.99-.54Z"/>
    <path class="cls-1" d="M61.45,273.11l-2.78,1.25s-.45-.99-1.17-2.55c-7.66-8.18-39.82-43.37-36.66-53.81.35-1.17,1.28-2.69,3.67-3.23,11.73-2.68,15.99,10.59,19.4,21.25,1.43,4.46,2.78,8.68,4.47,11.48,4.39,7.28,9.32,17.55,11.67,22.59.29.31.59.62.88.93l-.31.29c.51,1.11.81,1.77.82,1.8ZM24.16,218.22c-.23.21-.34.45-.41.67-1.81,5.98,14.63,27.05,29.13,43.36-2.19-4.39-4.74-9.23-7.11-13.17-1.88-3.11-3.28-7.49-4.77-12.12-3.99-12.45-7.46-21.11-15.82-19.21-.49.11-.81.28-1.02.47Z"/>
    <path class="cls-1" d="M62.1,273.32l-2.4,1.88s-.67-.85-1.75-2.19c-9.4-6.1-49.07-32.55-48.5-43.44.06-1.22.6-2.92,2.79-4.02,10.75-5.41,18.06,6.44,23.94,15.97,2.46,3.99,4.78,7.75,7.1,10.07,6.01,6.01,13.26,14.8,16.75,19.13.36.23.72.46,1.07.69l-.23.36c.77.96,1.21,1.52,1.23,1.55ZM12.73,228.97c-.18.26-.22.51-.23.75-.32,6.24,20.69,22.75,38.69,35.1-3.18-3.74-6.81-7.83-10.06-11.08-2.57-2.57-4.98-6.48-7.54-10.63-6.86-11.13-12.31-18.71-19.97-14.85-.45.23-.72.47-.88.7Z"/>
    <path class="cls-1" d="M62.79,272.28l-1.79,2.47s-.88-.63-2.28-1.62c-10.71-3.28-56.14-17.76-58.6-28.39-.28-1.19-.23-2.97,1.57-4.63,8.84-8.17,19.14,1.22,27.41,8.75,3.46,3.15,6.73,6.14,9.6,7.73,7.43,4.12,16.83,10.57,21.38,13.77.41.12.82.25,1.22.37l-.12.41c1,.71,1.58,1.13,1.61,1.15ZM3.11,243.26c-.1.3-.07.56-.02.79,1.41,6.08,26.16,16.17,46.86,23.08-4.09-2.71-8.71-5.65-12.73-7.88-3.18-1.76-6.58-4.86-10.17-8.14-9.66-8.81-16.99-14.59-23.29-8.77-.37.34-.56.65-.65.92Z"/>
  </g>
  <path class="cls-1" d="M291.99,510.74l-.4,3.02c-11.89-1.58-23.12-6.31-33.48-11.19-65.27-30.72-121.84-79.12-163.57-139.97-23.79-34.69-35.17-64.28-35.8-93.12l3.05-.07c.62,28.22,11.82,57.29,35.26,91.46,41.43,60.4,97.57,108.45,162.35,138.94,10.14,4.77,21.11,9.4,32.59,10.93Z"/>
  <path class="cls-1" d="M201.11,465.48l-.27,3.04s-.84-.07-2.2-.21l-.2.51c-.59-.24-1.2-.47-1.8-.71-7.18-.73-22.12-2.41-33.38-4.66-4.4-.88-10.01-.77-15.94-.65-14.51.3-30.96.63-36.83-13.65-1.17-2.85-.32-4.56.6-5.49,8.3-8.39,69.12,14.71,86.28,21.46,2.3.23,3.7.36,3.75.36ZM112.96,446.47c-.02.33.05.81.34,1.51,5.08,12.36,19.76,12.06,33.95,11.77,6.11-.12,11.88-.24,16.61.71,6.64,1.33,14.6,2.46,21.46,3.31-29.48-11.01-67.19-22.89-72.06-17.97-.08.08-.26.26-.29.67Z"/>
  <path class="cls-1" d="M129.91,401.18l-.27,3.04s-.84-.07-2.2-.21l-.21.51c-.6-.24-1.2-.48-1.81-.72-7.19-.73-22.12-2.41-33.37-4.66-4.4-.88-10.01-.77-15.94-.65-14.51.3-30.96.63-36.83-13.65-1.17-2.85-.32-4.56.6-5.49,8.3-8.39,69.11,14.71,86.27,21.46,2.3.23,3.7.36,3.76.36ZM41.76,382.17c-.02.33.05.81.34,1.51,5.08,12.36,19.76,12.06,33.95,11.77,6.11-.12,11.88-.24,16.61.71,6.64,1.33,14.6,2.46,21.45,3.31-29.48-11.01-67.19-22.89-72.06-17.97-.08.08-.26.26-.29.67Z"/>
  <path class="cls-1" d="M84.35,340.92l-.43,3.02s-.71-.1-1.86-.27l-.18.41c-.51-.22-1.02-.45-1.54-.67-6.07-.94-18.68-3-28.23-5.38-3.72-.93-8.41-1.09-13.38-1.26-12.2-.42-26.02-.9-31.62-12.97-1.17-2.52-.47-4.02.33-4.83,6.53-6.68,55.82,13.74,73.76,21.49,1.93.29,3.1.46,3.15.47ZM9.55,321.31c-.02.26.1.7.33,1.2,4.82,10.37,17.09,10.8,28.97,11.21,5.13.18,9.98.35,14.01,1.35,4.73,1.18,10.24,2.28,15.31,3.2-28.31-11.59-55.4-20.4-58.54-17.18-.04.04-.07.12-.08.22Z"/>
  <path class="cls-1" d="M202.85,468.73l-2.97.7c-.01-.06-.39-1.66-1.05-4.28-7.9-12.16-45.53-71.49-38.81-87.53.99-2.35,2.87-3.86,5.44-4.36,4.27-.83,7.94-.15,10.92,2.02,7.6,5.53,9.3,19.42,10.95,32.87.89,7.28,1.73,14.15,3.46,18.84,4.42,11.96,8.83,28.79,10.87,36.95.37.57.73,1.11,1.07,1.63l-.57.38c.43,1.73.67,2.75.68,2.8ZM162.24,381.55c-1.05,14.32,20.26,51.89,34.14,74.08-2.26-8.47-5.35-19.25-8.44-27.61-1.86-5.02-2.72-12.07-3.63-19.52-1.49-12.2-3.19-26.03-9.72-30.77-2.3-1.67-5.09-2.16-8.54-1.49-1.59.31-2.61,1.12-3.21,2.55-.33.78-.53,1.71-.6,2.76Z"/>
  <path class="cls-1" d="M128.57,398.91l-.66.21c-.06,1.78-.1,2.82-.1,2.87l-3.05-.13c0-.06.07-1.71.15-4.41-4.31-13.85-24.44-81.13-13.6-94.78,1.59-2,3.81-2.94,6.42-2.72,4.33.36,7.68,2.01,9.96,4.9,5.82,7.38,3.69,21.22,1.62,34.61-1.12,7.25-2.17,14.09-1.78,19.07,1.01,12.71.68,30.1.44,38.51.2.65.4,1.27.59,1.86ZM111.23,313.22c-1.27,17.36,7.46,52.37,13.9,74.42.12-8.76.07-19.98-.63-28.86-.43-5.34.66-12.35,1.8-19.78,1.87-12.15,4-25.92-1-32.25-1.76-2.23-4.32-3.46-7.82-3.75-1.61-.13-2.81.37-3.78,1.58-1.41,1.78-2.19,4.77-2.48,8.64Z"/>
  <path class="cls-1" d="M97.45,284.01c-.37,5.06-2.31,10.94-4.21,16.7-1.61,4.89-3.14,9.52-3.44,12.98-.78,8.96-3.01,20.99-4.17,26.86.06.45.12.88.18,1.29l-.45.07c-.27,1.33-.43,2.12-.44,2.15l-2.98-.63s.24-1.15.6-2.97c-1.57-11.34-7.63-59.54,1.72-67.96,1.46-1.31,3.25-1.75,5.2-1.25,3.1.79,5.34,2.4,6.65,4.8,1.23,2.23,1.56,4.95,1.34,7.96ZM84.38,330.57c.95-5.51,1.93-11.88,2.38-17.14.33-3.82,1.91-8.61,3.58-13.67,2.69-8.16,5.74-17.41,3.09-22.24-.9-1.65-2.45-2.73-4.73-3.31-.96-.24-1.7-.07-2.41.56-6.09,5.49-4.14,35.94-1.92,55.8Z"/>
  <path class="cls-1" d="M270.65,188.92l-2.48-1.77s.74-1.04,1.88-2.69c3.26-11.76,17.76-61.6,30.63-66.1,1.96-.69,3.91-.39,5.62.86,2.74,2.02,4.28,4.49,4.58,7.35.75,7.21-6.43,15.27-13.37,23.06-3.71,4.17-7.22,8.1-9,11.4-4.6,8.5-11.99,19.44-15.65,24.74-.13.47-.25.93-.37,1.36l-.48-.13c-.83,1.19-1.32,1.88-1.34,1.92ZM302.07,121.12c-.12.03-.25.07-.38.11-8.6,3.01-19.84,34.54-26.06,54.99,3.43-5.19,7.36-11.4,10.19-16.64,1.95-3.61,5.58-7.67,9.41-11.98,6.2-6.96,13.23-14.85,12.61-20.72-.21-2-1.3-3.7-3.35-5.21-.78-.57-1.56-.75-2.43-.55Z"/>
  <path class="cls-1" d="M283.85,106.6l-2.04-2.26s.87-.79,2.24-2.05c5.35-10.05,28.55-52.35,41.19-53.82,1.97-.23,3.7.44,5.02,1.95,2.1,2.41,3,4.99,2.7,7.67-.78,6.74-8.94,12.62-16.83,18.3-4.2,3.02-8.17,5.88-10.45,8.51-5.89,6.78-14.79,15.21-19.18,19.28-.21.4-.41.78-.6,1.14l-.41-.21c-1.01.93-1.61,1.47-1.64,1.49ZM325.05,51.59c-8.41,1.97-24.15,26.91-33.74,43.82,4.03-3.91,8.58-8.51,12.06-12.51,2.51-2.89,6.62-5.85,10.97-8.98,7.01-5.05,14.96-10.77,15.58-16.17.21-1.82-.43-3.56-1.96-5.32-.66-.76-1.39-1.04-2.36-.93-.18.02-.36.05-.54.1Z"/>
  <path class="cls-1" d="M283.86,108.6l-2.98-.62c.01-.07.36-1.74.9-4.49-2.15-17.24-10.64-92.04,2.75-102.2,1.36-1.03,3.64-1.97,6.82-.62,16.74,7.16,10.28,26.79,4.58,44.11-2.33,7.09-4.54,13.78-4.99,19.04-1.15,13.42-4.41,31.22-6.08,39.77.09.75.19,1.46.28,2.15l-.72.09c-.34,1.72-.55,2.72-.56,2.77ZM287.59,3.13c-.52.12-.91.36-1.21.59-9.44,7.15-5.98,59.17-2.7,89.62,1.6-8.96,3.43-20.45,4.23-29.78.48-5.62,2.74-12.48,5.13-19.73,5.55-16.86,11.29-34.29-2.88-40.35-1.09-.47-1.92-.5-2.56-.35Z"/>
</svg>