<?xml version="1.0" encoding="UTF-8"?>
<svg id="Layer_1" data-name="Layer 1" xmlns="http://www.w3.org/2000/svg" viewBox="0 0 526.63 552.45">
  <defs>
    <style>
      .cls-1 {
        fill: #8b7355;
      }
    </style>
  </defs>
  <path class="cls-1" d="M526.63,551.2l-2.49,1.25c-30.11-59.85-69.68-108.69-117.61-145.16-26.77-20.37-46.46-29.65-65.51-38.63-23.23-10.95-45.17-21.3-78.33-49.93-24.81-21.42-38.28-38.03-52.55-55.62-14.52-17.89-29.53-36.39-58.11-62.93-31.03-28.81-65.04-54.87-101.09-77.45l1.48-2.37c36.2,22.68,70.35,48.84,101.51,77.77,28.72,26.67,44.48,46.09,58.38,63.22,14.19,17.49,27.59,34,52.21,55.26,32.87,28.38,54.64,38.65,77.7,49.52,19.18,9.04,39,18.39,66,38.93,48.28,36.73,88.12,85.9,118.42,146.13Z"/>
  <g>
    <path class="cls-1" d="M106.98,158.52c-.08.08-.18.14-.3.18-.37.11-.76-.1-.87-.47-4.44-15.17-10.56-29.78-18.18-43.42-14.51-25.94-34.25-48.28-58.69-66.39-.31-.23-.37-.67-.14-.98.24-.31.67-.37.98-.14,24.59,18.23,44.47,40.72,59.07,66.83,7.68,13.73,13.84,28.43,18.31,43.71.07.25,0,.52-.18.69Z"/>
    <path class="cls-1" d="M99.35,135.81s-.1.09-.16.12c-.34.18-.76.06-.95-.28-6.48-11.93-16.83-36.35-13.43-65.79,2.62-22.7,12.29-38.86,19.94-48.43.24-.29.68-.35.98-.11.3.24.35.68.11.98-7.53,9.42-17.05,25.34-19.64,47.71-3.36,29.06,6.87,53.17,13.27,64.96.15.28.09.61-.12.83Z"/>
    <path class="cls-1" d="M98.53,137.01s-.04.03-.06.05c-.3.24-.74.19-.98-.11-7.74-9.62-20.42-23.02-36.88-32.21-21.28-11.89-37.29-10.22-44.94-8.17-.37.1-.76-.12-.85-.49-.1-.37.12-.76.49-.85,7.85-2.1,24.27-3.82,45.98,8.3,16.66,9.3,29.47,22.84,37.29,32.56.23.28.2.68-.05.93Z"/>
    <path class="cls-1" d="M5.62,47.2c1.03,2.38,3.54,8.2,9.21,9.87,6.79,1.99,15.17-2.82,18.09-10.2,2.64-6.66.69-15.07-5.59-19.41-7.13-4.92-17.41-2.93-21.71,3.29-4.37,6.32-.84,14.49,0,16.45Z"/>
    <path class="cls-1" d="M9.57,33.72c-.22-1.13,4.31-3.54,8.88-3.95,2.6-.23,4.78.22,6.25.66-2.24-.23-3.82.19-4.83.62-1.65.69-2.07,1.47-4.87,2.78-1.19.55-2.14.89-3.3.77-.19-.02-2-.2-2.13-.87Z"/>
    <path class="cls-1" d="M97.47,9.85c-1.29,2.25-4.45,7.74-2.39,13.29,2.47,6.63,11.34,10.47,19,8.39,6.91-1.87,12.48-8.47,12.2-16.1C125.96,6.78,118.21-.27,110.65,0c-7.68.28-12.11,8-13.18,9.84Z"/>
    <path class="cls-1" d="M110.64,4.94c.77-.85,5.41,1.33,8.48,4.75,1.74,1.94,2.69,3.96,3.21,5.4-1.16-1.94-2.44-2.94-3.39-3.5-1.53-.91-2.42-.78-5.14-2.24-1.15-.62-1.99-1.18-2.59-2.18-.1-.17-1.03-1.72-.57-2.23Z"/>
    <path class="cls-1" d="M1.41,99.9c.67,1.56,2.32,5.38,6.04,6.48,4.45,1.31,9.96-1.85,11.87-6.69,1.73-4.37.45-9.89-3.67-12.74-4.68-3.23-11.42-1.92-14.25,2.16-2.87,4.15-.55,9.51,0,10.79Z"/>
    <path class="cls-1" d="M4,91.05c-.14-.74,2.83-2.32,5.83-2.59,1.7-.15,3.13.14,4.1.43-1.47-.15-2.5.13-3.17.4-1.08.45-1.36.97-3.2,1.82-.78.36-1.4.58-2.17.51-.13-.01-1.31-.13-1.4-.57Z"/>
  </g>
  <g>
    <path class="cls-1" d="M200.22,249.24c-.14.14-.34.22-.56.2-12.44-1.18-24.69-3.74-36.42-7.62-22.3-7.38-42.59-19.36-60.3-35.61-.28-.26-.3-.7-.04-.99.28-.28.7-.3.99-.04,17.56,16.12,37.68,28,59.8,35.31,11.62,3.84,23.77,6.39,36.11,7.55.38.04.67.38.63.76-.02.17-.09.32-.2.43Z"/>
    <path class="cls-1" d="M181.6,246.74c-.18.18-.45.25-.7.17-10.01-3.17-30.07-7.47-51.92-.57-16.81,5.3-27.64,14.98-33.77,22.17-.25.29-.69.33-.98.08-.29-.25-.33-.69-.08-.98,6.24-7.32,17.28-17.19,34.41-22.59,22.21-7.01,42.59-2.65,52.76.57.37.12.57.51.45.88-.04.11-.09.21-.17.28Z"/>
    <path class="cls-1" d="M182.4,245.92c-.21.21-.54.27-.82.12-8.66-4.58-21-12.45-30.66-23.92-12.6-14.97-13.72-27.91-13.26-34.29.03-.38.36-.67.75-.65.38.03.67.36.65.75-.44,6.17.65,18.7,12.93,33.29,9.51,11.3,21.7,19.06,30.25,23.59.34.18.47.6.29.94-.03.06-.08.12-.12.17Z"/>
    <path class="cls-1" d="M99.39,187.51c1.99.44,6.84,1.51,8.97,5.63,2.54,4.93.08,12.11-5.17,15.45-4.74,3.02-11.51,2.77-15.78-1.43-4.85-4.76-4.84-12.97-.69-17.21,4.22-4.3,11.04-2.8,12.67-2.44Z"/>
    <path class="cls-1" d="M89.58,192.56c-.9,0-2.08,3.84-1.72,7.43.21,2.03.88,3.65,1.43,4.72-.51-1.69-.42-2.97-.24-3.81.28-1.37.83-1.82,1.41-4.17.25-1,.37-1.78.1-2.66-.04-.14-.45-1.51-.99-1.51Z"/>
    <path class="cls-1" d="M84.26,263.81c1.54-1.33,5.3-4.58,9.88-3.82,5.47.91,9.74,7.18,9.28,13.39-.42,5.6-4.67,10.87-10.59,11.79-6.71,1.04-13.29-3.88-14.2-9.75-.92-5.95,4.36-10.52,5.63-11.61Z"/>
    <path class="cls-1" d="M82.43,274.68c-.54.72,1.83,3.97,4.92,5.82,1.75,1.05,3.45,1.48,4.64,1.67-1.66-.61-2.63-1.44-3.2-2.09-.93-1.05-.96-1.75-2.49-3.63-.65-.8-1.2-1.36-2.07-1.67-.14-.05-1.48-.54-1.8-.11Z"/>
    <path class="cls-1" d="M139.35,176.44c1.3.29,4.49.99,5.89,3.69,1.67,3.24.05,7.94-3.39,10.14-3.11,1.98-7.55,1.82-10.35-.94-3.18-3.12-3.18-8.51-.45-11.29,2.77-2.82,7.24-1.84,8.31-1.6Z"/>
    <path class="cls-1" d="M132.92,179.75c-.59,0-1.37,2.52-1.13,4.87.14,1.33.58,2.39.94,3.09-.33-1.11-.27-1.95-.16-2.5.19-.9.54-1.19.93-2.73.16-.65.24-1.17.07-1.74-.03-.1-.3-.99-.65-.99Z"/>
  </g>
  <g>
    <path class="cls-1" d="M381.17,387.56c-.18.18-.45.25-.71.17-11.77-3.88-23.92-6.42-36.11-7.55-23.19-2.16-46.39.66-68.94,8.39-.36.12-.76-.07-.89-.43-.12-.36.07-.76.43-.89,22.74-7.79,46.13-10.64,69.52-8.46,12.29,1.14,24.54,3.71,36.42,7.61.37.12.57.52.44.88-.04.11-.09.2-.17.27Z"/>
    <path class="cls-1" d="M363.1,382.39c-.14.14-.35.22-.57.2-10.61-1.12-31.03-5.3-48.57-20.62-13.53-11.82-19.69-25.28-22.47-34.49-.11-.37.1-.76.47-.87.37-.11.76.1.87.47,2.73,9.04,8.77,22.25,22.05,33.84,17.25,15.07,37.35,19.17,47.79,20.28.38.04.66.38.62.77-.02.17-.09.31-.2.42Z"/>
    <path class="cls-1" d="M363.51,383.46c-.11.11-.27.19-.44.2-9.64.72-23.92,2.95-37.16,9.49-17.1,8.44-23.12,19.49-25.19,25.32-.13.37-.53.55-.89.42-.36-.13-.55-.53-.42-.89,2.14-6.03,8.35-17.45,25.89-26.1,13.44-6.64,27.91-8.9,37.68-9.63.39-.03.72.26.75.64.02.21-.06.41-.2.55Z"/>
    <path class="cls-1" d="M264.21,402.96c2,.4,6.87,1.36,10.47-1.56,4.31-3.5,4.92-11.06,1.46-16.23-3.13-4.67-9.43-7.15-15.03-5.02-6.35,2.42-9.64,9.94-7.53,15.49,2.14,5.63,8.99,6.99,10.63,7.31Z"/>
    <path class="cls-1" d="M257.25,394.41c-.83-.36-.37-4.36,1.4-7.49,1-1.78,2.26-2.99,3.2-3.75-1.15,1.35-1.57,2.55-1.75,3.4-.29,1.37.03,2-.37,4.38-.17,1.01-.38,1.78-.97,2.48-.1.12-1.02,1.2-1.51.99Z"/>
    <path class="cls-1" d="M280.92,327c.88,1.84,3.02,6.32,7.52,7.46,5.38,1.36,11.81-2.67,13.87-8.54,1.86-5.3.08-11.83-4.97-15.04-5.74-3.64-13.73-1.77-16.92,3.24-3.23,5.08-.22,11.38.5,12.89Z"/>
    <path class="cls-1" d="M283.6,316.3c-.2-.88,3.27-2.9,6.84-3.36,2.03-.26,3.75.02,4.92.33-1.77-.11-2.99.27-3.77.63-1.27.59-1.58,1.22-3.73,2.32-.91.47-1.65.76-2.56.7-.15,0-1.57-.1-1.69-.62Z"/>
    <path class="cls-1" d="M296.38,429.12c1.31.26,4.51.89,6.87-1.03,2.83-2.3,3.23-7.26.96-10.65-2.05-3.06-6.19-4.69-9.86-3.29-4.17,1.58-6.32,6.53-4.94,10.17,1.4,3.7,5.9,4.59,6.97,4.8Z"/>
    <path class="cls-1" d="M291.81,423.51c-.54-.24-.24-2.86.92-4.92.66-1.17,1.49-1.96,2.1-2.46-.75.88-1.03,1.68-1.15,2.23-.19.9.02,1.31-.25,2.88-.11.67-.25,1.17-.64,1.62-.06.08-.67.79-.99.65Z"/>
  </g>
  <g>
    <path class="cls-1" d="M259.34,313.23c-.1.1-.24.17-.39.2-.38.06-.74-.21-.79-.59-1.84-12.36-2.29-24.87-1.33-37.18,1.82-23.42,8.59-45.99,20.12-67.08.19-.34.61-.46.95-.28.34.18.46.61.28.95-11.44,20.91-18.15,43.29-19.96,66.52-.95,12.2-.5,24.61,1.32,36.87.03.23-.05.45-.2.6Z"/>
    <path class="cls-1" d="M257.31,294.55c-.14.14-.33.22-.54.2-.38-.02-.68-.36-.65-.74.68-10.48.04-30.99-11.88-50.54-9.18-15.05-21.17-23.25-29.61-27.47-.34-.17-.48-.59-.31-.94.18-.35.59-.48.94-.31,8.61,4.31,20.83,12.66,30.18,27.99,12.12,19.88,12.78,40.71,12.08,51.36-.01.18-.09.33-.2.45Z"/>
    <path class="cls-1" d="M258.29,295.13c-.17.17-.42.25-.66.18-.37-.09-.6-.47-.51-.85,2.38-9.5,7.06-23.38,15.88-35.5,11.5-15.81,23.81-20,30.11-21.09.38-.07.74.19.81.57.07.38-.19.74-.57.81-6.1,1.05-18,5.11-29.22,20.53-8.69,11.94-13.31,25.63-15.65,35.02-.03.13-.1.24-.18.32Z"/>
    <path class="cls-1" d="M294.26,200.65c.05,2.04.18,7.01-3.32,10.06-4.18,3.65-11.73,2.98-16.24-1.32-4.07-3.88-5.44-10.51-2.4-15.66,3.46-5.85,11.43-7.81,16.54-4.79,5.19,3.06,5.37,10.04,5.41,11.71Z"/>
    <path class="cls-1" d="M287.01,192.34c-.22-.88-4.23-1.1-7.62.11-1.93.69-3.33,1.72-4.24,2.52,1.52-.9,2.78-1.12,3.64-1.15,1.4-.05,1.96.37,4.38.37,1.03,0,1.81-.07,2.6-.54.13-.08,1.36-.8,1.23-1.32Z"/>
    <path class="cls-1" d="M216.56,204.24c1.66,1.18,5.72,4.05,6.07,8.68.42,5.53-4.64,11.18-10.77,12.22-5.54.94-11.68-1.93-13.98-7.45-2.62-6.27.59-13.83,6.06-16.12,5.56-2.32,11.26,1.71,12.62,2.68Z"/>
    <path class="cls-1" d="M205.57,205.07c-.83-.35-3.42,2.73-4.48,6.17-.6,1.95-.61,3.7-.51,4.9.19-1.76.77-2.9,1.26-3.61.79-1.15,1.47-1.35,2.92-3.29.62-.82,1.03-1.5,1.13-2.41.02-.15.17-1.57-.32-1.78Z"/>
    <path class="cls-1" d="M314.58,236.79c.03,1.34.12,4.6-2.18,6.6-2.74,2.4-7.7,1.95-10.66-.86-2.67-2.54-3.57-6.9-1.57-10.28,2.27-3.84,7.5-5.13,10.86-3.15,3.41,2.01,3.52,6.59,3.55,7.69Z"/>
    <path class="cls-1" d="M309.83,231.34c-.14-.57-2.78-.72-5,.07-1.26.45-2.19,1.13-2.78,1.66,1-.59,1.83-.73,2.39-.75.92-.03,1.29.24,2.88.25.67,0,1.19-.05,1.71-.35.09-.05.89-.53.81-.87Z"/>
  </g>
  <path class="cls-1" d="M471.75,467.94s-.07.06-.11.09c-.32.21-.75.13-.97-.19-6.93-10.4-12.66-21.53-17.04-33.07-8.33-21.97-11.82-45.27-10.37-69.26.02-.39.35-.68.74-.66.38.02.68.36.65.74-1.44,23.79,2.02,46.9,10.28,68.68,4.34,11.45,10.03,22.48,16.9,32.79.19.28.14.65-.09.88Z"/>
  <path class="cls-1" d="M459.58,454.52c-.16.16-.4.24-.65.19-10.41-2.31-30.23-8.75-45.94-25.95-12.11-13.26-16.72-27.33-18.45-36.8-.07-.38.18-.74.56-.81.38-.07.74.18.81.56,1.7,9.29,6.22,23.09,18.11,36.11,15.45,16.91,34.96,23.25,45.21,25.52.38.08.61.46.53.83-.03.13-.1.25-.19.34Z"/>
  <path class="cls-1" d="M463.09,452.02c-.09.09-.22.16-.36.19-.38.08-.74-.17-.82-.55-1.9-9.61-3.57-24.16-.76-38.88,3.67-19.21,13.02-28.24,18.26-31.91.32-.22.75-.14.97.17.22.32.15.75-.17.97-5.07,3.55-14.11,12.3-17.69,31.03-2.77,14.5-1.12,28.86.75,38.35.05.24-.03.47-.19.63Z"/>
  <path class="cls-1" d="M455.54,350.96c.91,1.82,3.14,6.26,1.28,10.51-2.23,5.08-9.35,7.69-15.25,5.73-5.33-1.77-9.4-7.19-8.84-13.15.64-6.76,7.02-11.94,12.93-11.39,6,.56,9.13,6.8,9.88,8.3Z"/>
  <path class="cls-1" d="M445.45,346.53c-.57-.7-4.3.8-6.85,3.35-1.45,1.44-2.28,2.98-2.76,4.09.99-1.46,2.04-2.2,2.81-2.59,1.24-.64,1.93-.5,4.13-1.53.93-.44,1.61-.84,2.13-1.59.08-.12.89-1.3.55-1.72Z"/>
  <path class="cls-1" d="M384.09,390.29c.67,1.92,2.29,6.62,6.63,8.25,5.19,1.95,12.03-1.33,14.74-6.93,2.45-5.06,1.41-11.75-3.25-15.51-5.29-4.26-13.45-3.3-17.17,1.32-3.78,4.69-1.5,11.29-.95,12.87Z"/>
  <path class="cls-1" d="M387.96,379.96c-.11-.9,3.57-2.52,7.18-2.57,2.04-.03,3.72.45,4.85.88-1.74-.31-3-.07-3.82.2-1.33.44-1.71,1.03-3.97,1.89-.96.36-1.72.57-2.63.41-.15-.03-1.55-.27-1.61-.81Z"/>
  <path class="cls-1" d="M489.33,375c.6,1.19,2.06,4.11.84,6.9-1.46,3.34-6.13,5.05-10.01,3.76-3.5-1.16-6.17-4.72-5.8-8.63.42-4.44,4.61-7.83,8.48-7.47,3.94.37,5.99,4.46,6.48,5.44Z"/>
  <path class="cls-1" d="M482.71,372.09c-.37-.46-2.82.53-4.5,2.2-.95.95-1.5,1.96-1.81,2.68.65-.96,1.34-1.44,1.84-1.7.82-.42,1.27-.33,2.71-1,.61-.29,1.06-.55,1.4-1.05.06-.08.58-.85.36-1.13Z"/>
</svg>