<?xml version="1.0" encoding="UTF-8"?>
<svg id="Layer_1" data-name="Layer 1" xmlns="http://www.w3.org/2000/svg" viewBox="0 0 525.48 768.36">
  <defs>
    <style>
      .cls-1 {
        fill: #e8dfd0;
      }
    </style>
  </defs>
  <path class="cls-1" d="M.41,2.94c.45.54.94,1.13,1.42,1.72,5.92,24.66,14.75,47.73,26.25,68.57,20.27,36.73,49.04,66.47,83.24,86.15,1.76,3.33,3.51,6.67,5.24,10.01,1.85,4.36,3.66,8.8,5.41,13.3.28.71.96,1.15,1.67,1.15.08,0,.16-.03.25-.05,15.22,30.32,29.15,61,41.79,92.01-1.73-.99-3.49-1.94-5.27-2.85-11.52-5.89-24.34-10.3-38.15-13.16.72-2.61.13-5.87-1.73-9.34-4.07-7.63-14.34-16.28-26.12-18.05-8.87-1.34-19.38,1.1-25.54,5.91-2.88,2.25-4.54,4.87-4.79,7.56-.91,9.64,16.1,18.11,28.73,20.53,2.59.5,6.9,1.03,11.44,1.03,6.15,0,12.73-.99,16.07-4.36,13.95,2.79,26.88,7.17,38.44,13.08,3.15,1.61,6.21,3.37,9.16,5.21,10.39,25.83,19.86,51.88,28.43,78.12-4.57-3.29-9.16-6.41-13.77-9.37-7.68-13.53-21.36-32.1-43.42-45.02-40.1-23.49-79.76-11.62-91.83-7.01-.44-.13-.89-.27-1.3-.39-.95-.28-1.95.25-2.24,1.2-.29.95.25,1.95,1.2,2.24.47.14,1,.3,1.51.45,13.18,12.98,27.82,23.79,43.52,32.11,24.91,13.19,52.57,20.05,80.61,20.05,3.48,0,6.96-.11,10.44-.32,4.96,3.2,9.9,6.57,14.81,10.15.32.23.69.34,1.06.34.27,0,.55-.06.8-.19,15.44,47.85,27.85,96.3,37.16,145.18-5.04-4.49-10.09-8.8-15.16-12.92-9.02-17.42-24.85-41.82-49.5-60.41-44.76-33.76-87.28-24.53-100.24-20.48-.49-.22-1-.45-1.46-.66-.9-.4-1.97,0-2.38.9-.41.9,0,1.97.9,2.38.56.25,1.16.52,1.77.8,15.03,17.55,31.52,32.62,49.05,44.8,31.23,21.7,65.84,34.1,100.11,35.88,5.61,4.57,11.21,9.37,16.78,14.41.32.28.71.42,1.1.44,1.33,7.15,2.6,14.3,3.8,21.47,6.51,38.97,11.03,78.3,13.58,117.7-3.73-3.41-7.47-6.69-11.22-9.83-6.99-13.89-19.25-33.32-38.34-48.14-34.58-26.85-67.46-19.68-77.73-16.42-.32-.15-.67-.31-.97-.45-.9-.41-1.97-.03-2.38.87-.42.9-.03,1.97.87,2.38.4.19.85.39,1.28.59,11.62,13.96,24.38,25.96,37.93,35.66,24.16,17.29,50.94,27.18,77.47,28.62,4.3,3.61,8.58,7.39,12.85,11.37.16.15.35.26.54.34,2.18,36.13,2.71,72.31,1.54,108.33-.03.99.75,1.82,1.74,1.85.02,0,.04,0,.06,0,.96,0,1.76-.77,1.79-1.74.67-20.49.78-41.04.36-61.59.76-.11,1.41-.67,1.53-1.47,6.64-42.4,16.21-82.26,28.58-119.34.02.02.02.05.04.08.36.42.86.64,1.38.64.41,0,.82-.14,1.15-.42,3.85-3.23,7.72-6.27,11.59-9.19,23.27-.38,47.02-7.91,68.72-21.82,12.17-7.8,23.72-17.58,34.34-29.06.37-.15.75-.31,1.1-.45.92-.37,1.36-1.42.99-2.34-.37-.92-1.42-1.36-2.34-.99-.25.1-.54.22-.8.33-8.98-3.13-37.54-10.23-68.66,11.45-17.21,11.99-28.58,28.13-35.16,39.73-3.78,2.84-7.55,5.82-11.32,8.95,11.86-34.95,26.26-67.38,43.1-97.11.06-.02.13-.04.19-.07,2.56-1.38,5.25-2.63,7.98-3.72,8.79-3.52,18.4-5.51,28.59-5.97,3.29,5.19,12.43,7.06,18.98,7.06.35,0,.7,0,1.03-.02,9.61-.3,23.07-5.46,23.35-14.37.09-2.97-1.32-6.08-4.08-8.98-4.35-4.57-11.05-7.59-17.07-7.7-8.42-.14-15.76,5.29-19.48,9.99-2.84,3.6-4.24,7.33-3.96,10.47-10.2.57-19.85,2.64-28.71,6.18-1.25.5-2.48,1.04-3.7,1.6,20.68-35.45,45.08-67.08,72.56-94.08.19-.06.37-.16.53-.29,3.7-2.91,7.42-5.66,11.17-8.3,24.21-.54,48.23-7.46,69.49-20.05,11.92-7.06,23-15.88,32.94-26.21.37-.14.75-.28,1.09-.4.8-.29,1.22-1.09,1.13-1.9l.14-.15-.17-.05c-.02-.07,0-.14-.03-.21-.34-.93-1.38-1.41-2.31-1.06-.28.1-.59.22-.89.33-9.49-2.68-39.99-8.87-70.39,10.8-16.77,10.85-27.05,25.34-32.78,35.77-2.64,1.85-5.26,3.78-7.88,5.77-.54-.09-1.12.03-1.55.44-.06.06-.12.12-.18.18.42-2.84.78-5.64,1.08-8.42,5.86-9.64,12.94-24.59,14.1-41.87,2.09-31.22-16.7-48.34-23.45-53.43-.03-.18-.07-.38-.1-.56-.18-.98-1.11-1.63-2.09-1.45-.13.02-.24.09-.36.14l-.05-.04-.02.07c-.72.34-1.16,1.1-1.02,1.91.05.27.1.57.15.86-3.85,12.39-5.95,24.71-6.24,36.62-.52,21.25,4.83,41.21,15.46,57.78-.43,3.92-.95,7.88-1.62,11.92-.03.18,0,.36.02.53-23.93,23.73-45.51,50.94-64.33,81.11.52-3.72.97-7.41,1.35-11.07,8.89-14.79,19.68-37.79,21.44-64.4,3.18-48.23-25.74-74.42-35.63-81.89-.07-.42-.15-.85-.22-1.25-.17-.98-1.1-1.62-2.08-1.46-.98.17-1.63,1.11-1.46,2.08.09.49.18,1.03.28,1.57-5.88,19.13-9.09,38.14-9.53,56.52-.79,32.74,7.37,63.49,23.57,88.97-.66,6.16-1.47,12.41-2.51,18.76-.99,1.65-1.97,3.3-2.94,4.97-35.46,60.92-60.43,133.45-74.36,215.67-1.62-52.8-6.81-105.64-15.52-157.84-3.07-18.39-6.59-36.71-10.53-54.98,1.23-3.16,2.66-6.29,4.26-9.32,5.2-9.84,12.32-18.88,21.15-26.94,1.16.4,2.41.61,3.71.61,6.72,0,14.81-4.82,19.41-8.91h0c8.06-7.16,16.21-22.01,9.87-30.12-2.15-2.75-5.92-4.56-10.6-5.1-7.21-.84-15.29,1.37-20.58,5.62-7.37,5.92-9.83,15.73-9.67,22.93.13,5.75,1.82,10.4,4.66,13.04-8.77,8.15-15.87,17.28-21.11,27.19-.85,1.61-1.65,3.24-2.4,4.89-5.27-23.83-11.28-47.54-18.01-71.13,1.88-8.45,3.95-16.67,6.19-24.66,26.62-22.36,47.58-53.57,60.65-90.42,7.14-20.14,11.96-41.98,14.38-64.92.65-1.15,1.28-2.25,1.85-3.25.49-.86.19-1.96-.67-2.45-.18-.1-.38-.16-.57-.19l.02-.19-.54.18c-.25.03-.48.11-.69.23l-1.38.46c-12.25,4.11-53.61,21.95-71.39,78.7-9.74,31.1-8.66,61.72-6.04,81.93l.2,1.58c-1.42,5.2-2.78,10.49-4.06,15.88-11.26-38.56-24.46-76.76-39.6-114.5.26-.76,0-1.63-.7-2.08-.06-.04-.13-.07-.19-.11-1.55-3.84-3.11-7.67-4.7-11.49,2.28-7.6,4.71-14.96,7.26-22.11,24.23-17.97,44.44-44.62,58.49-77.23,7.68-17.83,13.54-37.44,17.49-58.31.64-.98,1.26-1.93,1.82-2.79.54-.83.31-1.94-.52-2.49-.09-.06-.19-.07-.29-.11l.06-.35-.85.21c-.22.01-.42.06-.62.15l-1.2.29c-10.67,2.58-47.02,14.93-66.72,65.48-10.78,27.66-12.42,55.94-11.9,74.79l.04,1.48c-1.81,5.15-3.55,10.42-5.22,15.8-13.34-31.79-28.04-63.23-44.1-94.28.31-.21.56-.52.69-.91,2.14-6.46,4.43-12.71,6.82-18.78,22.7-15.25,41.64-37.85,54.81-65.51,7.2-15.12,12.69-31.74,16.4-49.43.59-.81,1.15-1.59,1.66-2.31.58-.81.4-1.93-.41-2.51-.07-.05-.16-.07-.24-.11l.08-.41-.97.21c-.19,0-.37.05-.55.12l-1.15.25c-10.01,2.19-44.1,12.67-62.59,55.62-10.12,23.51-11.67,47.54-11.18,63.56l.04,1.23c-1.84,4.75-3.61,9.62-5.3,14.6-.83-1.89-1.66-3.76-2.51-5.63.26-21.38-2.7-53-18.07-83.7C69.43,18.38,19.94,5.01,4.42,2.14c-.42-.5-.85-1.02-1.24-1.49C2.54-.12,1.41-.22.65.41-.11,1.05-.22,2.18.41,2.94ZM194.45,32.89c-3.07,4.28-6.94,9.67-11.37,15.88-11.55,16.19-25.84,36.24-31.73,45.02-9.16,13.68-17.38,29.27-24.6,46.49.2-15.17,2.52-35.14,10.95-54.7,16.13-37.46,44.42-49.24,56.75-52.69ZM129.89,142.08c7.17-17.16,15.33-32.69,24.44-46.29,5.86-8.74,20.13-28.77,31.61-44.85,2.64-3.71,5.06-7.09,7.25-10.14-3.54,14.34-8.31,27.89-14.25,40.38-12.01,25.21-28.88,46.12-49.04,60.9ZM245.58,108.97c-3.36,5.16-7.65,11.78-12.62,19.48-12.31,19.08-27.58,42.75-33.86,53.11-9.85,16.26-18.7,34.76-26.44,55.25.16-18.02,2.6-41.94,11.73-65.37,17.5-44.9,48.32-58.6,61.19-62.47ZM175.69,238.96c7.74-20.63,16.61-39.24,26.48-55.54,6.26-10.32,21.51-33.97,33.77-52.96,2.96-4.59,5.67-8.77,8.09-12.5-3.8,17.3-8.98,33.63-15.46,48.68-12.93,30.01-31.13,54.85-52.88,72.33ZM290.88,221.91c-3.43,6.02-7.85,13.8-12.98,22.88-12.44,22.03-27.92,49.44-34.22,61.4-10.11,19.19-18.73,40.79-25.76,64.47-1.89-19.56-1.79-46.32,6.7-73.41,16.08-51.32,51.84-69.82,66.26-75.34ZM221.38,371.67c6.96-23.45,15.48-44.82,25.49-63.8,6.28-11.91,21.74-39.3,34.17-61.31,3.32-5.89,6.35-11.22,9.01-15.9-2.61,19.61-7.05,38.31-13.22,55.73-12.17,34.31-31.27,63.62-55.44,85.28ZM260.7,440.6c.03-.45-.11-.92-.43-1.29-.65-.75-1.78-.83-2.53-.18-.06.05-.11.1-.16.15-2.2-1.85-3.63-5.88-3.74-10.69-.13-6.06,1.97-14.94,8.33-20.05,3.89-3.12,9.77-5,15.3-5,.89,0,1.76.05,2.62.15,3.72.43,6.63,1.76,8.19,3.75,4.74,6.06-2.41,18.98-9.42,25.22h0c-4.63,4.12-12.71,8.67-18.14,7.94ZM325.93,315.89c.81,4.61,1.73,9.94,2.75,15.86,3.55,20.68,7.96,46.36,9.49,57.38,2.5,18.03,2.8,37.56.97,58.24-14.18-24.07-21.29-52.61-20.57-82.94.38-15.81,2.86-32.11,7.35-48.55ZM342.97,444.54c1.55-19.78,1.17-38.52-1.24-55.9-1.54-11.08-5.96-36.8-9.5-57.46-1.25-7.3-2.37-13.69-3.29-18.94,11.32,9.59,33.88,34.2,31.1,76.3-1.46,22.13-9.38,41.74-17.07,56ZM398.99,284.39c.41,2.3.85,4.83,1.32,7.54,2.33,13.37,5.23,30,6.23,37.14,1.56,11.06,1.8,22.99.79,35.61-8.6-15.12-12.89-32.87-12.43-51.68.23-9.32,1.61-18.92,4.09-28.61ZM411.16,361.91c.75-11.76.41-22.91-1.06-33.34-1.01-7.19-3.92-23.86-6.25-37.25-.69-3.93-1.31-7.46-1.85-10.5,7.64,6.82,20.6,22.28,18.9,47.74-.86,12.9-5.2,24.47-9.74,33.35ZM516.04,328.36c-3.46,1.28-7.47,2.78-11.93,4.45-15.36,5.75-34.28,12.84-42.28,16.09-12.04,4.9-24.04,11.29-35.88,19.01,5.89-9.05,14.8-19.64,27.68-27.97,24.99-16.17,50.04-14.11,62.4-11.58ZM426.32,371.99c12.17-8.08,24.51-14.72,36.88-19.76,7.94-3.24,26.84-10.31,42.02-16,3.57-1.34,6.82-2.55,9.74-3.64-8.23,7.75-17.15,14.49-26.61,20.1-19.05,11.29-40.38,17.89-62.03,19.3ZM373.93,473.34c.2-.3.34-.64.33-1.02-.02-.98-.87-1.71-1.81-1.75-.3-2.2.84-5.17,3.16-8.09,3.17-4.01,9.32-8.63,16.32-8.63.09,0,.18,0,.28,0,5.03.09,10.86,2.73,14.53,6.58,2.06,2.16,3.16,4.43,3.09,6.39-.18,5.79-10.83,10.61-19.87,10.89-5.37.16-12.85-1.28-16.02-4.37ZM400.05,523.14c-3.63,1.48-7.92,3.23-12.73,5.21-14.4,5.92-34.13,14.02-42.21,17.63-11.94,5.33-24,12.28-36.04,20.71,6.63-10.15,16.35-22.01,29.66-31.29,25.98-18.11,49.98-15.25,61.32-12.26ZM308.5,571.51c12.73-9.15,25.48-16.63,38.07-22.25,8.03-3.58,27.73-11.68,42.11-17.59,3.45-1.42,6.62-2.72,9.49-3.89-8.84,8.79-18.25,16.4-28.07,22.7-19.5,12.5-40.68,19.7-61.6,21.03ZM132.69,585.87c3.53,1.64,7.53,3.51,11.91,5.57,17.08,8.01,38.34,17.98,47.31,22.52,14.45,7.32,28.99,16.89,43.43,28.53-24.2-2.32-48.47-11.77-70.55-27.57-11.33-8.11-22.1-17.86-32.1-29.05ZM234.81,637.48c-13.72-10.8-27.54-19.76-41.28-26.72-9.02-4.57-30.3-14.55-47.4-22.57-5.78-2.71-10.89-5.1-15.14-7.07,4.34-1.06,10.46-2.11,17.85-2.11,14.26,0,33.16,3.89,52.67,19.04,15.34,11.91,26.17,26.92,33.32,39.43ZM76.82,422.07c5.07,2.29,10.98,4.97,17.57,7.97,22.1,10.07,49.61,22.6,61.21,28.31,19.12,9.41,38.37,21.77,57.47,36.85-31.93-2.66-64.01-14.64-93.14-34.88-15.26-10.61-29.72-23.47-43.11-38.25ZM212.52,490.2c-18.39-14.26-36.92-26.01-55.34-35.07-11.65-5.73-39.18-18.28-61.31-28.36-8.03-3.66-15.06-6.84-20.78-9.42,5.69-1.45,14.15-2.98,24.52-2.98,18.54,0,43.11,4.91,68.47,24.04,20.8,15.69,35.19,35.64,44.44,51.79ZM54.2,303.87c4.51,1.37,9.73,2.95,15.54,4.73,20.04,6.13,44.91,13.73,55.37,17.29,16.95,5.76,33.91,13.85,50.63,24.13-29.19.89-58.12-5.81-84.02-19.53-13.38-7.09-25.96-16.03-37.53-26.61ZM175.86,345.86c-16.38-9.9-32.98-17.74-49.59-23.38-10.52-3.57-35.41-11.19-55.41-17.3-6.75-2.06-12.71-3.87-17.66-5.37,15.22-4.9,49.54-11.94,84.18,8.35,18.27,10.7,30.62,25.43,38.49,37.7ZM118.72,259.06c-.19-.03-.37-.08-.56-.11-.98-.17-1.91.47-2.09,1.44-.08.45.03.88.24,1.24-4.85,2.73-15.41,2.64-22.81,1.22-12.19-2.33-26.42-10.28-25.83-16.66.2-2.13,1.98-3.93,3.43-5.07,4.38-3.43,11.59-5.51,18.36-5.51,1.51,0,3,.1,4.43.32,10.6,1.6,19.83,9.35,23.48,16.19,1.47,2.76,1.94,5.25,1.35,6.94ZM111.79,150.09c-11.42-23.84-24.42-45.28-38.87-63.99-8.94-11.58-30.66-38.01-48.11-59.24-6.49-7.89-12.15-14.76-16.73-20.28,18.48,4.29,61.09,19.34,86.07,69.25,13.28,26.53,17.09,53.79,17.63,74.26ZM7.22,11.16c4.21,5.09,9.2,11.14,14.79,17.94,17.46,21.25,39.16,47.66,48.07,59.2,14.77,19.12,28.02,41.15,39.6,65.72-.03.05-.05.1-.08.15-32.09-19.34-59.12-47.81-78.37-82.69C21.04,53.02,13,32.74,7.22,11.16Z"/>
</svg>